<?xml version="1.0" standalone="no"?>
<!DOCTYPE svg PUBLIC "-//W3C//DTD SVG 20010904//EN"
 "http://www.w3.org/TR/2001/REC-SVG-20010904/DTD/svg10.dtd">
<svg version="1.0" xmlns="http://www.w3.org/2000/svg"
 width="206.000000pt" height="208.000000pt" viewBox="0 0 206.000000 208.000000"
 preserveAspectRatio="xMidYMid meet">

<g transform="translate(0.000000,208.000000) scale(0.100000,-0.100000)"
fill="#000000" stroke="none">
<path d="M885 2070 c-216 -34 -409 -128 -564 -275 -175 -166 -258 -318 -315
-577 l-6 -28 304 0 304 0 27 56 c58 118 188 211 328 235 180 30 376 -69 462
-234 l30 -57 302 0 303 0 -7 33 c-38 201 -130 381 -272 530 -154 161 -323 257
-536 303 -86 19 -279 26 -360 14z"/>
<path d="M952 1271 c-168 -59 -222 -262 -105 -392 69 -76 155 -102 248 -74
133 38 208 170 170 300 -40 138 -182 213 -313 166z"/>
<path d="M7 858 c38 -202 130 -382 272 -531 156 -163 330 -260 556 -309 35 -7
120 -12 205 -12 123 1 160 5 245 28 176 46 324 128 454 251 175 166 258 318
315 578 l6 27 -304 0 -304 0 -27 -56 c-58 -118 -188 -211 -327 -235 -181 -30
-377 69 -463 234 l-30 57 -302 0 -302 0 6 -32z"/>
</g>
</svg>
